<mxfile host="app.diagrams.net" agent="Mozilla/5.0 (Windows NT 10.0; Win64; x64) AppleWebKit/537.36 (KHTML, like Gecko) Chrome/124.0.0.0 Safari/537.36 SLBrowser/9.0.6.2081 SLBChan/112 SLBVPV/64-bit" version="26.2.5">
  <diagram name="第 1 页" id="HpNQ8o-jHF2XOKDsb-o1">
    <mxGraphModel dx="1215" dy="748" grid="1" gridSize="10" guides="1" tooltips="1" connect="1" arrows="1" fold="1" page="1" pageScale="1" pageWidth="827" pageHeight="1169" math="0" shadow="0">
      <root>
        <mxCell id="0" />
        <mxCell id="1" parent="0" />
        <mxCell id="UWRjMic2gbHwzK5n3u4L-4" style="edgeStyle=orthogonalEdgeStyle;rounded=0;orthogonalLoop=1;jettySize=auto;html=1;exitX=1;exitY=0.5;exitDx=0;exitDy=0;entryX=0;entryY=0.5;entryDx=0;entryDy=0;" edge="1" parent="1" source="UWRjMic2gbHwzK5n3u4L-1" target="UWRjMic2gbHwzK5n3u4L-2">
          <mxGeometry relative="1" as="geometry" />
        </mxCell>
        <mxCell id="UWRjMic2gbHwzK5n3u4L-1" value="prompt" style="rounded=0;whiteSpace=wrap;html=1;" vertex="1" parent="1">
          <mxGeometry x="220" y="240" width="120" height="60" as="geometry" />
        </mxCell>
        <mxCell id="UWRjMic2gbHwzK5n3u4L-5" style="edgeStyle=orthogonalEdgeStyle;rounded=0;orthogonalLoop=1;jettySize=auto;html=1;exitX=1;exitY=0.5;exitDx=0;exitDy=0;" edge="1" parent="1" source="UWRjMic2gbHwzK5n3u4L-2" target="UWRjMic2gbHwzK5n3u4L-3">
          <mxGeometry relative="1" as="geometry" />
        </mxCell>
        <mxCell id="UWRjMic2gbHwzK5n3u4L-2" value="LLM" style="rounded=1;whiteSpace=wrap;html=1;" vertex="1" parent="1">
          <mxGeometry x="410" y="240" width="120" height="60" as="geometry" />
        </mxCell>
        <mxCell id="UWRjMic2gbHwzK5n3u4L-3" value="output" style="rounded=0;whiteSpace=wrap;html=1;" vertex="1" parent="1">
          <mxGeometry x="600" y="240" width="120" height="60" as="geometry" />
        </mxCell>
      </root>
    </mxGraphModel>
  </diagram>
</mxfile>
